HIERARCHY
ROOT pelvis
{
	OFFSET 0.003123 -0.351407 0.012037
	CHANNELS 6 Xposition Yposition Zposition Zrotation Yrotation Xrotation 
	JOINT left_hip
	{
		OFFSET 0.058189 -0.092763 -0.026001
		CHANNELS 3 Zrotation Yrotation Xrotation
		JOINT left_knee
		{
			OFFSET 0.054695 -0.378753 -0.009396
			CHANNELS 3 Zrotation Yrotation Xrotation
			JOINT left_ankle
			{
				OFFSET -0.043453 -0.403059 -0.031876
				CHANNELS 3 Zrotation Yrotation Xrotation
				JOINT left_foot
				{
					OFFSET 0.047257 -0.057997 0.118216
					CHANNELS 3 Zrotation Yrotation Xrotation
					End Site
					{
						OFFSET 0.000000 0.000000 0.000000
					}
				}
			}
		}
	}
	JOINT right_hip
	{
		OFFSET -0.063267 -0.103908 -0.021250
		CHANNELS 3 Zrotation Yrotation Xrotation
		JOINT right_knee
		{
			OFFSET -0.044210 -0.362380 -0.016824
			CHANNELS 3 Zrotation Yrotation Xrotation
			JOINT right_ankle
			{
				OFFSET 0.015417 -0.410728 -0.020192
				CHANNELS 3 Zrotation Yrotation Xrotation
				JOINT right_foot
				{
					OFFSET -0.038812 -0.058328 0.119049
					CHANNELS 3 Zrotation Yrotation Xrotation
					End Site
					{
						OFFSET 0.000000 0.000000 0.000000
					}
				}
			}
		}
	}
	JOINT spine_1
	{
		OFFSET -0.002763 0.109891 -0.027618
		CHANNELS 3 Zrotation Yrotation Xrotation
		JOINT spine_2
		{
			OFFSET 0.009448 0.131853 -0.005940
			CHANNELS 3 Zrotation Yrotation Xrotation
			JOINT spine_3
			{
				OFFSET -0.011330 0.052235 0.028447
				CHANNELS 3 Zrotation Yrotation Xrotation
				JOINT neck
				{
					OFFSET -0.012164 0.165167 -0.031615
					CHANNELS 3 Zrotation Yrotation Xrotation
					JOINT head
					{
						OFFSET 0.024783 0.160452 0.020737
						CHANNELS 3 Zrotation Yrotation Xrotation
						End Site
						{
							OFFSET 0.000000 0.000000 0.000000
						}
					}
				}
				JOINT left_collar
				{
					OFFSET 0.046364 0.084944 -0.007220
					CHANNELS 3 Zrotation Yrotation Xrotation
					JOINT left_shoulder
					{
						OFFSET 0.119239 0.057728 -0.015461
						CHANNELS 3 Zrotation Yrotation Xrotation
						JOINT left_elbow
						{
							OFFSET 0.254123 -0.072151 -0.042459
							CHANNELS 3 Zrotation Yrotation Xrotation
							JOINT left_wrist
							{
								OFFSET 0.251987 0.023221 -0.002472
								CHANNELS 3 Zrotation Yrotation Xrotation
								JOINT left_index_1
								{
									OFFSET 0.101902 -0.008688 0.019351
									CHANNELS 3 Zrotation Yrotation Xrotation
									JOINT left_index_2
									{
										OFFSET 0.030149 -0.011154 0.001151
										CHANNELS 3 Zrotation Yrotation Xrotation
										JOINT left_index_3
										{
											OFFSET 0.006504 -0.021577 -0.002433
											CHANNELS 3 Zrotation Yrotation Xrotation
											End Site
											{
												OFFSET 0.000000 0.000000 0.000000
											}
										}
									}
								}
								JOINT left_middle_1
								{
									OFFSET 0.109398 -0.006328 -0.003981
									CHANNELS 3 Zrotation Yrotation Xrotation
									JOINT left_middle_2
									{
										OFFSET 0.026472 -0.015218 -0.004641
										CHANNELS 3 Zrotation Yrotation Xrotation
										JOINT left_middle_3
										{
											OFFSET 0.005022 -0.023347 -0.001911
											CHANNELS 3 Zrotation Yrotation Xrotation
											End Site
											{
												OFFSET 0.000000 0.000000 0.000000
											}
										}
									}
								}
								JOINT left_pinky_1
								{
									OFFSET 0.084047 -0.014539 -0.043750
									CHANNELS 3 Zrotation Yrotation Xrotation
									JOINT left_pinky_2
									{
										OFFSET 0.012124 -0.014448 -0.005375
										CHANNELS 3 Zrotation Yrotation Xrotation
										JOINT left_pinky_3
										{
											OFFSET 0.003798 -0.018853 0.000167
											CHANNELS 3 Zrotation Yrotation Xrotation
											End Site
											{
												OFFSET 0.000000 0.000000 0.000000
											}
										}
									}
								}
								JOINT left_ring_1
								{
									OFFSET 0.097444 -0.009268 -0.027345
									CHANNELS 3 Zrotation Yrotation Xrotation
									JOINT left_ring_2
									{
										OFFSET 0.023561 -0.016057 -0.001895
										CHANNELS 3 Zrotation Yrotation Xrotation
										JOINT left_ring_3
										{
											OFFSET 0.004257 -0.023548 0.000814
											CHANNELS 3 Zrotation Yrotation Xrotation
											End Site
											{
												OFFSET 0.000000 0.000000 0.000000
											}
										}
									}
								}
								JOINT left_thumb_1
								{
									OFFSET 0.040636 -0.017977 0.025611
									CHANNELS 3 Zrotation Yrotation Xrotation
									JOINT left_thumb_2
									{
										OFFSET 0.021637 -0.017639 0.011623
										CHANNELS 3 Zrotation Yrotation Xrotation
										JOINT left_thumb_3
										{
											OFFSET 0.024002 -0.008356 0.006548
											CHANNELS 3 Zrotation Yrotation Xrotation
											End Site
											{
												OFFSET 0.000000 0.000000 0.000000
											}
										}
									}
								}
							}
						}
					}
				}
				JOINT right_collar
				{
					OFFSET -0.047695 0.084339 -0.013400
					CHANNELS 3 Zrotation Yrotation Xrotation
					JOINT right_shoulder
					{
						OFFSET -0.102578 0.053524 -0.012669
						CHANNELS 3 Zrotation Yrotation Xrotation
						JOINT right_elbow
						{
							OFFSET -0.271150 -0.036492 -0.026467
							CHANNELS 3 Zrotation Yrotation Xrotation
							JOINT right_wrist
							{
								OFFSET -0.249267 -0.004533 -0.015325
								CHANNELS 3 Zrotation Yrotation Xrotation
								JOINT right_index_1
								{
									OFFSET -0.099881 -0.011783 0.019600
									CHANNELS 3 Zrotation Yrotation Xrotation
									JOINT right_index_2
									{
										OFFSET -0.030148 -0.011154 0.001151
										CHANNELS 3 Zrotation Yrotation Xrotation
										JOINT right_index_3
										{
											OFFSET -0.006505 -0.021577 -0.002432
											CHANNELS 3 Zrotation Yrotation Xrotation
											End Site
											{
												OFFSET 0.000000 0.000000 0.000000
											}
										}
									}
								}
								JOINT right_middle_1
								{
									OFFSET -0.107376 -0.009422 -0.003734
									CHANNELS 3 Zrotation Yrotation Xrotation
									JOINT right_middle_2
									{
										OFFSET -0.026472 -0.015218 -0.004641
										CHANNELS 3 Zrotation Yrotation Xrotation
										JOINT right_middle_3
										{
											OFFSET -0.005022 -0.023347 -0.001911
											CHANNELS 3 Zrotation Yrotation Xrotation
											End Site
											{
												OFFSET 0.000000 0.000000 0.000000
											}
										}
									}
								}
								JOINT right_pinky_1
								{
									OFFSET -0.082027 -0.017634 -0.043503
									CHANNELS 3 Zrotation Yrotation Xrotation
									JOINT right_pinky_2
									{
										OFFSET -0.012123 -0.014448 -0.005374
										CHANNELS 3 Zrotation Yrotation Xrotation
										JOINT right_pinky_3
										{
											OFFSET -0.003798 -0.018852 0.000167
											CHANNELS 3 Zrotation Yrotation Xrotation
											End Site
											{
												OFFSET 0.000000 0.000000 0.000000
											}
										}
									}
								}
								JOINT right_ring_1
								{
									OFFSET -0.095423 -0.012362 -0.027099
									CHANNELS 3 Zrotation Yrotation Xrotation
									JOINT right_ring_2
									{
										OFFSET -0.023561 -0.016057 -0.001895
										CHANNELS 3 Zrotation Yrotation Xrotation
										JOINT right_ring_3
										{
											OFFSET -0.004257 -0.023548 0.000816
											CHANNELS 3 Zrotation Yrotation Xrotation
											End Site
											{
												OFFSET 0.000000 0.000000 0.000000
											}
										}
									}
								}
								JOINT right_thumb_1
								{
									OFFSET -0.038613 -0.021074 0.025861
									CHANNELS 3 Zrotation Yrotation Xrotation
									JOINT right_thumb_2
									{
										OFFSET -0.021636 -0.017639 0.011623
										CHANNELS 3 Zrotation Yrotation Xrotation
										JOINT right_thumb_3
										{
											OFFSET -0.024004 -0.008353 0.006547
											CHANNELS 3 Zrotation Yrotation Xrotation
											End Site
											{
												OFFSET 0.000000 0.000000 0.000000
											}
										}
									}
								}
							}
						}
					}
				}
			}
		}
	}
}
MOTION
Frames: 7
Frame Time: 0.050000
0.434395 0.930061 0.364876 -116.808836 -75.098509 106.884992 3.660736 3.751315 -10.096524 25.785924 2.189741 25.714171 -74.267236 -24.938276 22.667286 0.000000 0.000000 0.000000 22.998030 2.129449 22.642309 1.886990 1.553058 -2.354861 -40.030458 -14.633073 41.907851 0.000000 0.000000 0.000000 -11.334498 4.449314 13.739797 13.087472 1.918718 -31.881158 -13.683852 -46.556092 39.437658 7.494905 4.709059 7.220510 0.000000 0.000000 0.000000 16.493079 -0.506807 50.341005 -171.775487 -70.193391 -129.682746 90.566159 17.771835 23.814930 24.881682 1.893494 -62.537220 12.256245 11.160406 11.353330 -88.335020 -43.591830 -15.718633 0.000000 0.000000 0.000000 -56.677343 -32.424700 7.999290 -25.735800 -19.782222 -73.356719 0.000000 0.000000 0.000000 -14.388954 -58.316249 -50.806544 21.126039 0.324380 5.021429 0.000000 0.000000 0.000000 -48.365661 -58.660712 4.051958 39.720031 4.173493 -30.922422 0.000000 0.000000 0.000000 65.181058 7.215421 3.512004 -55.198489 -1.597568 20.351025 0.000000 0.000000 0.000000 -17.684251 -0.996495 -33.715276 51.004242 7.083401 -38.365900 168.041186 55.558727 129.066557 -8.578348 8.828392 -0.235734 16.990663 -8.757248 1.300641 12.776786 -2.116907 13.703966 0.000000 0.000000 0.000000 16.963014 15.047034 -8.634425 49.807414 2.034526 0.529610 0.000000 0.000000 0.000000 -20.041197 21.109208 -52.717864 23.363779 3.735736 -6.926970 0.000000 0.000000 0.000000 0.911500 29.825082 -23.103779 44.194017 0.882175 5.888713 0.000000 0.000000 0.000000 -30.273240 -38.963635 26.253787 5.632649 33.130421 -11.854426 0.000000 0.000000 0.000000 
0.434395 0.929658 0.361576 -114.827587 -75.546995 105.143069 2.996423 3.642237 -10.929026 27.218584 2.225844 26.339327 -75.250852 -24.679648 23.965879 0.000000 0.000000 0.000000 21.880426 1.875923 21.778033 3.693633 1.891947 -1.561406 -40.415857 -14.770040 42.069803 0.000000 0.000000 0.000000 -11.878978 4.959345 14.898542 13.019442 1.976704 -32.993016 -14.851129 -47.215626 40.372090 8.138520 4.999090 7.777325 0.000000 0.000000 0.000000 16.210144 -0.082893 50.143923 -172.528434 -71.854184 -130.381193 91.569052 15.963629 24.459345 25.182183 1.972831 -64.073653 13.292548 7.754821 10.995444 -83.695462 -48.506908 -16.661529 0.000000 0.000000 0.000000 -48.022830 -32.313278 4.557642 -31.459877 -23.684534 -66.536495 0.000000 0.000000 0.000000 -13.064033 -54.707075 -49.046644 18.342874 -0.112753 2.631902 0.000000 0.000000 0.000000 -39.101476 -55.279719 -2.616912 30.722928 -1.189248 -35.449480 0.000000 0.000000 0.000000 64.164857 6.908404 3.697081 -49.031347 -0.066459 18.632378 0.000000 0.000000 0.000000 -17.565773 -0.792032 -34.473523 50.354179 6.215402 -37.939109 167.464954 55.576257 126.687187 -8.044937 9.994919 3.233227 10.126138 -8.427271 0.736725 38.297761 -4.960075 7.599166 0.000000 0.000000 0.000000 16.219992 14.353079 -8.635657 53.318446 0.662358 1.978432 0.000000 0.000000 0.000000 -24.826442 21.401199 -59.168618 33.546351 8.026078 -11.173349 0.000000 0.000000 0.000000 1.528752 29.631799 -22.459536 47.786157 12.977572 -10.637682 0.000000 0.000000 0.000000 -31.541370 -39.202239 22.719736 16.596059 31.978737 -9.941216 0.000000 0.000000 0.000000 
0.430626 0.929497 0.360916 -109.744372 -74.899900 100.140869 3.002528 3.694830 -11.356011 29.739126 2.097275 26.626197 -77.321158 -24.338778 25.815556 0.000000 0.000000 0.000000 23.525760 1.886760 22.187842 3.467340 1.905155 -2.360627 -39.958278 -15.311511 43.292739 0.000000 0.000000 0.000000 -11.487728 4.803104 15.740239 13.247188 1.906437 -32.341196 -13.573198 -47.291912 38.860624 10.303449 4.951797 7.573176 0.000000 0.000000 0.000000 17.362335 -1.796383 51.217116 -176.611519 -70.855983 -122.761946 92.495029 20.836377 28.043714 24.433233 4.074576 -70.782391 -1.116609 11.807275 6.754217 -95.972125 -10.396607 -15.192950 0.000000 0.000000 0.000000 -64.537109 -28.027691 6.677325 -37.109377 -26.364715 -66.205251 0.000000 0.000000 0.000000 -28.301937 -61.559074 -41.690812 18.618622 0.067216 3.112171 0.000000 0.000000 0.000000 -62.615330 -61.576497 13.802477 36.981445 3.684666 -29.982033 0.000000 0.000000 0.000000 62.834109 -1.027779 2.505784 -54.326114 4.973311 23.196921 0.000000 0.000000 0.000000 -17.531291 -2.259686 -36.134199 49.823103 6.131866 -36.547962 165.352975 57.648363 123.866688 -9.772108 11.358851 -1.333241 17.744302 -12.545470 0.694316 25.576876 -3.446540 18.486933 0.000000 0.000000 0.000000 20.099710 17.511392 -9.767010 63.815404 -1.045892 4.857330 0.000000 0.000000 0.000000 -21.851718 26.971602 -74.660184 36.661169 2.184912 -4.262592 0.000000 0.000000 0.000000 5.806029 37.535378 -26.955552 65.224482 11.228151 -4.057197 0.000000 0.000000 0.000000 -36.961818 -43.541914 32.594819 5.635746 44.950987 -17.441758 0.000000 0.000000 0.000000 
0.424973 0.929658 0.363556 -110.279959 -75.105820 100.958087 2.004887 3.336445 -11.495693 30.910460 2.298012 27.062849 -77.251365 -24.345776 25.949549 0.000000 0.000000 0.000000 22.722852 2.000530 22.623344 3.926860 2.146413 -2.971111 -39.596321 -15.252148 43.295938 0.000000 0.000000 0.000000 -11.490405 4.874582 15.959515 12.047540 1.366429 -32.646160 -12.628971 -47.397475 38.590377 9.517723 5.347089 8.487129 0.000000 0.000000 0.000000 18.387799 -1.865693 51.988342 -175.453555 -70.276324 -120.671157 93.024409 24.363365 30.922803 24.813710 5.957851 -65.052160 6.686796 10.979953 8.203505 -87.611117 -36.546374 -16.734819 0.000000 0.000000 0.000000 -52.718212 -38.074959 5.826172 -46.121913 -31.439410 -72.954575 0.000000 0.000000 0.000000 -11.083614 -61.980113 -56.092108 19.288596 0.563575 5.693120 0.000000 0.000000 0.000000 -37.971401 -63.674259 -5.027941 29.830887 1.006601 -30.771589 0.000000 0.000000 0.000000 65.827894 2.336178 3.051306 -50.138050 -0.308106 19.307815 0.000000 0.000000 0.000000 -17.907642 -1.868414 -35.261388 49.750224 5.469091 -37.283220 166.208023 57.950798 124.460180 -8.699664 12.275426 -0.947519 18.006063 -12.162955 0.485613 34.698317 -4.883086 15.433099 0.000000 0.000000 0.000000 20.694258 16.160910 -9.749735 63.090219 1.090520 2.379557 0.000000 0.000000 0.000000 -24.934612 24.208872 -72.866398 46.671988 7.291384 -9.611187 0.000000 0.000000 0.000000 1.959310 34.813483 -27.092592 62.311726 15.791839 -8.274011 0.000000 0.000000 0.000000 -38.053101 -44.189401 34.242027 3.140429 46.467974 -19.563568 0.000000 0.000000 0.000000 
0.419319 0.929819 0.364876 -107.661281 -74.659573 99.021640 1.948593 3.393722 -11.911323 32.003860 2.118994 26.731798 -77.895267 -24.468757 26.485671 0.000000 0.000000 0.000000 21.796427 1.634066 21.404671 6.125925 2.591799 -1.778489 -38.756092 -15.669778 43.280789 0.000000 0.000000 0.000000 -10.617739 4.246101 15.893724 12.115565 1.467998 -33.030866 -12.785813 -47.669678 39.029935 8.815348 5.242057 8.331664 0.000000 0.000000 0.000000 16.952549 -0.633425 50.625787 -173.812992 -69.363596 -123.610279 92.211514 22.681517 28.404689 24.221466 3.612176 -63.804025 6.277883 11.019832 7.971758 -87.238504 -54.556799 -16.263261 0.000000 0.000000 0.000000 -56.000899 -39.532623 7.695804 -49.711214 -33.532629 -68.858298 0.000000 0.000000 0.000000 -10.869731 -60.389136 -56.724448 19.277121 0.173470 3.873523 0.000000 0.000000 0.000000 -42.562861 -64.330862 -2.647008 35.677983 3.309619 -31.854473 0.000000 0.000000 0.000000 62.670303 3.635970 1.925611 -48.608814 -0.176796 18.791974 0.000000 0.000000 0.000000 -18.261979 -2.012112 -35.538236 48.993900 5.440989 -36.726059 168.192444 57.692709 126.325298 -8.906765 12.199588 3.508582 20.317944 -11.690415 0.512621 44.341679 -5.188040 6.354479 0.000000 0.000000 0.000000 30.610500 16.970505 -9.455125 52.677283 -5.527020 8.470166 0.000000 0.000000 0.000000 -13.975732 26.789181 -64.787021 37.000465 3.370675 -4.986030 0.000000 0.000000 0.000000 9.755329 33.529829 -22.639310 55.153701 12.262673 -7.601797 0.000000 0.000000 0.000000 -31.060171 -44.378318 36.392603 -18.222010 42.791511 -31.179103 0.000000 0.000000 0.000000 
0.419319 0.928691 0.362236 -113.139137 -74.275818 104.577625 2.657091 3.835373 -11.963281 31.105736 2.425645 27.334594 -77.597732 -24.694373 25.444822 0.000000 0.000000 0.000000 20.771719 1.729125 21.183899 7.208072 2.902190 -1.065350 -38.625234 -15.415519 41.875338 0.000000 0.000000 0.000000 -11.031210 4.587642 15.672511 12.627414 2.265628 -34.003119 -14.344734 -45.845382 40.414287 9.262435 4.922107 7.502176 0.000000 0.000000 0.000000 17.417892 -0.896655 51.173581 -175.461108 -70.791514 -122.053461 93.219773 22.319335 30.089653 24.719948 3.072167 -62.923279 14.906971 0.860162 11.349246 -68.655125 -70.718080 -27.203551 0.000000 0.000000 0.000000 -38.341308 -36.882576 -0.784879 -52.180474 -33.394812 -66.255058 0.000000 0.000000 0.000000 -10.494985 -56.758342 -52.604903 19.648904 -1.062642 -1.548624 0.000000 0.000000 0.000000 -27.470575 -60.308423 -12.842092 25.159436 -2.502878 -35.199211 0.000000 0.000000 0.000000 66.223459 3.310535 1.976686 -46.004692 -1.273666 17.209142 0.000000 0.000000 0.000000 -18.203075 -2.821106 -39.045289 48.555014 0.763250 -36.835096 163.419309 56.389907 116.231672 -6.930376 11.863093 3.053574 19.492269 -12.430575 0.190223 39.855355 -4.160911 5.932572 0.000000 0.000000 0.000000 22.129828 15.123892 -9.991920 65.972623 5.318913 -4.408270 0.000000 0.000000 0.000000 -18.349417 22.301041 -64.986848 32.738279 14.953799 -19.305983 0.000000 0.000000 0.000000 6.023433 32.847767 -24.156690 52.433166 9.915794 -5.666157 0.000000 0.000000 0.000000 -23.912992 -41.658703 27.361291 -1.172443 37.810139 -24.608003 0.000000 0.000000 0.000000 
0.417435 0.928530 0.363556 -119.294412 -73.480110 110.730092 2.747554 3.936928 -11.619929 31.078681 2.857170 27.796208 -76.682693 -24.733750 23.977847 0.000000 0.000000 0.000000 20.656307 1.785890 20.776322 6.452413 2.495345 0.428823 -38.212888 -14.671149 40.174531 0.000000 0.000000 0.000000 -11.000033 4.549084 14.736546 12.918777 2.275656 -31.756264 -13.934361 -47.080221 39.054573 8.325911 5.367553 8.083941 0.000000 0.000000 0.000000 15.441733 1.434602 49.690945 -173.201800 -71.542564 -127.669387 92.296850 19.412444 27.880742 23.068410 2.256179 -68.891418 4.225767 -0.344991 11.660868 -86.138083 -46.783840 -17.811504 0.000000 0.000000 0.000000 -56.554374 -34.518757 6.657036 -47.867698 -31.795633 -68.214820 0.000000 0.000000 0.000000 -19.677917 -57.822373 -46.819018 15.594676 -0.773181 -1.501835 0.000000 0.000000 0.000000 -48.197626 -59.574325 2.100379 27.676355 -1.541361 -37.487979 0.000000 0.000000 0.000000 62.603552 -3.441173 -0.783180 -49.045054 7.148730 21.228946 0.000000 0.000000 0.000000 -17.088666 0.905424 -34.511912 46.482882 7.524005 -34.720549 171.044142 59.145662 129.440647 -5.458557 12.039451 -0.393427 19.333757 -17.885207 -2.815829 61.514625 -7.693411 8.468316 0.000000 0.000000 0.000000 26.623533 17.554886 -13.233721 80.667059 5.276449 -2.501056 0.000000 0.000000 0.000000 -14.803583 29.252153 -80.753730 44.313009 -7.200531 6.315319 0.000000 0.000000 0.000000 5.750992 40.966249 -31.803584 65.733103 9.311054 -3.349440 0.000000 0.000000 0.000000 -35.102069 -53.941550 34.043046 1.425980 57.991310 -45.241523 0.000000 0.000000 0.000000 
